<?xml version="1.0" ?>
<!DOCTYPE svg  PUBLIC '-//W3C//DTD SVG 1.1//EN'  'http://www.w3.org/Graphics/SVG/1.1/DTD/svg11.dtd' [
<!ENTITY stroke_color "#666666">
<!ENTITY fill_color "#ffffff">
]>
<svg xmlns="http://www.w3.org/2000/svg" xmlns:svg="http://www.w3.org/2000/svg" xmlns:rdf="http://www.w3.org/1999/02/22-rdf-syntax-ns#" xmlns:cc="http://creativecommons.org/ns#" xmlns:dc="http://purl.org/dc/elements/1.1/" width="55" height="55" id="svg4502" version="1.0" xml:space="preserve">
	<defs id="defs4504"/>
	<metadata id="metadata4507">
		<rdf:RDF>
			<cc:Work rdf:about="">
				<dc:format>image/svg+xml</dc:format>
				<dc:type rdf:resource="http://purl.org/dc/dcmitype/StillImage"/>
			</cc:Work>
		</rdf:RDF>
	</metadata>
	<g id="layer1" style="display:inline" transform="translate(0,55)">
		<g id="_x5F_guide">
			<rect x="0" width="55" height="55" id="rect2336" y="0" style="fill:#282828;fill-opacity:1"/>
			<rect x="5" y="5" width="45" height="45" id="rect2338" style="fill:none;stroke:&stroke_color;;stroke-opacity:1"/>
			<flowRoot xml:space="preserve" id="flowRoot4579">
				<flowRegion id="flowRegion4581">
					<rect id="rect4583" width="47.72971" height="44.194176" x="62.124382" y="-15.710678"/>
				</flowRegion>
				<flowPara id="flowPara4585">r2r2r23r23r23r23r23r</flowPara>
			</flowRoot>
		</g>
	</g>
	<g id="layer2" style="display:inline" transform="translate(0,55)">
		<g id="_x5F_swatches">
			<rect x="55" width="55" height="55" id="rect2318" y="0" style="fill:&stroke_color;;fill-opacity:1"/>
			<rect x="84.695" y="16.556999" width="8.783" height="8.7799997" id="rect2320" style="fill:#666666;stroke:&fill_color;;stroke-width:3.5"/>
			<rect x="84.695" y="29.729" width="8.783" height="8.7819996" id="rect2322" style="fill:&fill_color;;stroke:&fill_color;;stroke-width:3.5"/>
			<rect x="97.867996" y="16.556" width="8.7819996" height="8.7810001" id="rect2324" style="fill:#666666"/>
			<rect x="71.521004" y="16.556999" width="8.783" height="8.7799997" id="rect2326" style="fill:#666666;stroke:#666666;stroke-width:3.5"/>
			<rect x="84.695" y="3.3840001" width="8.783" height="8.7799997" id="rect2328" style="fill:none;stroke:&fill_color;;stroke-width:3.5"/>
			<rect x="58.349998" y="29.729" width="8.783" height="8.7819996" id="rect2330" style="fill:&fill_color;"/>
			<rect x="71.521004" y="42.900002" width="8.783" height="8.7810001" id="rect2332" style="fill:none;stroke:#666666;stroke-width:3.5"/>
			<rect x="71.521004" y="29.729" width="8.783" height="8.7819996" id="rect2334" style="fill:&fill_color;;stroke:#666666;stroke-width:3.5"/>
			<g id="g1" style="display:inline" transform="translate(41.365747,48.800245)">
				<path d="m -72.977667,-47.828031 c -1.783099,0.118289 -3.303334,0.573921 -4.630801,1.384421 l -0.297914,0.184005 -0.0044,0.284771 c -0.0044,0.332962 -0.0044,3.553055 0,3.745823 l 0.0044,0.131432 2.155492,-0.0088 c 1.187272,-0.0044 2.203683,-0.0088 2.251875,-0.0088 0.092,-0.0044 0.09638,-0.02191 0.113908,-0.806119 0.01752,-0.683448 0.03505,-0.832405 0.113908,-1.042697 0.153338,-0.385535 0.455632,-0.60897 0.832405,-0.60897 0.219054,0 0.455633,0.08324 0.416203,0.144576 -0.01752,0.02629 -0.0044,0.03067 0.02629,0.01314 0.06572,-0.04381 0.232198,0.100765 0.192768,0.1621 -0.01314,0.02629 -0.0044,0.03067 0.02191,0.01314 0.06133,-0.03505 0.157719,0.131433 0.113908,0.20153 -0.0219,0.03067 -0.01314,0.03505 0.02629,0.01314 0.04381,-0.02629 0.05257,-0.01752 0.03067,0.03943 -0.01752,0.03943 -0.01314,0.06133 0.0088,0.04819 0.06572,-0.03943 0.148956,0.455632 0.12267,0.740402 -0.08324,0.854311 -0.398679,1.143462 -2.151111,1.962724 -1.91015,0.89374 -2.781985,1.401946 -3.386574,1.980248 -0.683449,0.6484 -1.025173,1.362516 -1.152224,2.413975 -0.05257,0.411822 -0.092,4.210218 -0.05257,4.499369 l 0.01752,0.122671 h 5.625307 5.625306 v -2.409594 -2.409594 h -2.256256 -2.251875 l -0.0219,0.140194 c -0.01314,0.07886 -0.03505,0.271627 -0.04819,0.429346 -0.03943,0.433727 -0.166481,0.652781 -0.473157,0.806119 -0.240959,0.118289 -0.297913,0.127051 -0.911264,0.148957 l -0.652781,0.02191 v -0.232197 c 0,-0.341725 0.07886,-0.552016 0.302294,-0.801738 0.289151,-0.319819 0.670305,-0.552016 2.072251,-1.25737 1.927675,-0.9726 2.536645,-1.309943 3.009802,-1.669191 0.350486,-0.262865 0.718497,-0.674687 0.963838,-1.077746 0.727259,-1.187273 0.762307,-3.539913 0.07448,-4.985669 -0.591446,-1.244227 -1.756813,-1.980248 -3.566199,-2.238732 -0.442489,-0.06134 -1.787481,-0.109527 -2.265019,-0.07448 z" id="path1-5" style="fill:&stroke_color;;stroke:none;stroke-width:0.00438108"/>
				<path d="m -59.536513,-47.814888 c -1.642905,0.131432 -3.128091,0.595827 -4.363556,1.366897 -0.236578,0.148957 -0.442489,0.289151 -0.455632,0.311057 -0.01314,0.01752 -0.02191,0.411821 -0.01752,0.867453 0,0.644019 -0.0088,0.823643 -0.05257,0.801738 -0.03943,-0.02191 -0.03943,-0.01752 0.0044,0.03067 0.03505,0.03943 0.05257,0.210291 0.05257,0.512586 0,0.350486 -0.01314,0.442489 -0.05257,0.420584 -0.04381,-0.02629 -0.04381,-0.02191 -0.0044,0.03067 0.03505,0.04381 0.05257,0.232197 0.04819,0.547635 v 0.477538 l 2.304449,0.01314 2.304448,0.0088 v -0.578302 c 0,-1.1347 0.219054,-1.54214 0.828024,-1.533378 0.262865,0 0.600208,0.109527 0.556397,0.179624 -0.01314,0.0219 0.0044,0.06133 0.03943,0.092 0.03505,0.03067 0.06572,0.03943 0.06572,0.02191 0,-0.01752 0.03067,-0.0088 0.06572,0.02191 0.03943,0.03067 0.06133,0.08324 0.04819,0.118289 -0.01314,0.03505 -0.0088,0.05257 0.01314,0.03943 0.03505,-0.02629 0.09638,0.09638 0.1621,0.319819 0.04381,0.166481 0.03067,0.963838 -0.0219,1.200416 -0.113908,0.490681 -0.328581,0.714116 -0.814881,0.841167 -0.197149,0.04819 -0.503824,0.06572 -1.301181,0.06572 h -1.042697 v 0.884978 c 0,0.490681 -0.0044,1.174129 -0.01314,1.524616 l -0.0088,0.635256 0.941932,-0.0088 c 1.283656,-0.0088 1.66481,0.06572 2.006534,0.389916 0.135814,0.135814 0.192768,0.249722 0.08762,0.184006 -0.03067,-0.01752 -0.03505,-0.01314 -0.01752,0.0219 0.01752,0.02629 0.04819,0.03943 0.06572,0.02629 0.06572,-0.03943 0.188386,0.36363 0.157719,0.512587 -0.02191,0.113908 -0.01752,0.131432 0.0219,0.07886 0.08324,-0.109527 0.02629,1.156605 -0.06133,1.436995 -0.092,0.280389 -0.3242,0.556397 -0.538873,0.626494 -0.227816,0.07448 -0.687829,0.03067 -0.832405,-0.07448 -0.166481,-0.127052 -0.306676,-0.385535 -0.350486,-0.6484 -0.01752,-0.12267 -0.03505,-0.245341 -0.03943,-0.267246 -0.0044,-0.02629 -0.0088,-0.372392 -0.01314,-0.775451 l -0.0044,-0.731641 -2.286924,0.0088 -2.291305,0.0088 -0.02629,0.503824 c -0.01314,0.276008 -0.02629,0.477538 -0.03067,0.442489 -0.0044,-0.03505 -0.02191,-0.04819 -0.03505,-0.03505 -0.01752,0.01752 -0.0088,0.05257 0.01752,0.08324 0.0701,0.08762 0.0701,1.888245 0,1.848816 -0.04381,-0.02629 -0.04819,-0.01752 0,0.03067 0.03505,0.03943 0.05257,0.210292 0.05257,0.512587 0,0.350486 -0.01314,0.442489 -0.05257,0.420583 -0.04381,-0.02629 -0.03943,-0.01314 0,0.03505 0.03505,0.04819 0.05257,0.148957 0.03943,0.271627 -0.0088,0.109527 -0.0044,0.192767 0.0088,0.188386 0.05257,-0.01314 0.223435,0.105146 0.201529,0.144576 -0.01314,0.0219 0,0.05257 0.02629,0.0701 0.03505,0.01752 0.03943,0.01314 0.02191,-0.01752 -0.04819,-0.07886 -0.01752,-0.06572 0.337343,0.148957 0.184006,0.109527 0.534492,0.289151 0.784214,0.398678 0.249721,0.109527 0.460013,0.219054 0.464394,0.240959 0.0088,0.01752 0.03505,0.02629 0.05695,0.0088 0.0219,-0.01314 0.20153,0.02629 0.403059,0.08762 0.911265,0.28477 2.006535,0.424965 3.316478,0.429346 1.020792,0.0044 1.713002,-0.05695 2.343878,-0.205911 1.042697,-0.24534 1.682335,-0.573921 2.256256,-1.156605 0.547635,-0.556397 0.828024,-1.108413 1.029554,-2.019678 0.09638,-0.44687 0.135813,-1.70424 0.0701,-2.212445 -0.175243,-1.314324 -0.89374,-2.286924 -1.971486,-2.672459 -0.135813,-0.04819 -0.144576,-0.06133 -0.0701,-0.08762 0.416202,-0.153338 0.77107,-0.376773 1.077745,-0.679067 0.573922,-0.565159 0.8105,-1.182892 0.858692,-2.234351 0.109527,-2.562932 -1.226702,-4.083166 -3.947353,-4.490607 -0.573921,-0.08324 -1.769956,-0.118289 -2.422737,-0.06572 z m 1.25737,3.504864 c 0,0.0219 -0.0088,0.04381 -0.01752,0.04381 -0.01314,0 -0.03505,-0.02191 -0.04819,-0.04381 -0.01314,-0.02629 -0.0044,-0.04381 0.01752,-0.04381 0.02629,0 0.04819,0.01752 0.04819,0.04381 z" id="path2" style="fill:&stroke_color;;stroke:none;stroke-width:0.00438108"/>
				<path d="m -87.67619,-46.294653 v 1.349372 l 0.153338,0.100765 c 0.140194,0.08762 0.227816,0.232197 0.100765,0.157719 -0.03505,-0.01752 -0.04381,-0.01314 -0.02191,0.0088 0.02191,0.02191 0.06133,0.03943 0.08762,0.03943 0.03067,0 0.04819,0.03505 0.04819,0.07886 -0.0044,0.03943 0.0088,0.06572 0.02629,0.05257 0.04819,-0.03067 0.09638,0.188387 0.06133,0.249722 -0.02191,0.03067 -0.0088,0.03505 0.02629,0.01314 0.03943,-0.02629 0.05257,0.0044 0.03505,0.12267 -0.0088,0.08762 0,0.144576 0.01752,0.135814 0.02191,-0.01314 0.03505,1.805005 0.03505,4.043737 0,4.240885 -0.0044,4.284696 -0.188386,4.639563 -0.03943,0.07448 -0.140195,0.179625 -0.223435,0.24096 l -0.157719,0.105146 v 1.366897 1.371278 h 2.952848 2.952848 l 0.02191,-0.092 c 0.01314,-0.05257 0.02629,-0.670305 0.02629,-1.371278 l 0.0044,-1.274894 -0.179624,-0.122671 c -0.113909,-0.07886 -0.214673,-0.197148 -0.271627,-0.328581 l -0.09638,-0.20591 -0.01314,-6.015223 -0.0088,-6.010842 h -2.694364 -2.694364 z" id="path3-5" style="fill:&stroke_color;;stroke:none;stroke-width:0.00438108"/>
				<path d="m -57.468643,-29.234728 c -2.760081,0.153338 -4.118216,1.252989 -4.512513,3.645059 -0.0701,0.429346 -0.157719,1.564045 -0.12267,1.616618 0.0088,0.02191 0,0.03505 -0.01752,0.03505 -0.02191,0 -0.03505,0.06572 -0.02629,0.140194 0.0088,0.07886 0.02191,1.463281 0.03067,3.0799 0.01314,1.612237 0.03067,3.005421 0.04381,3.088661 0.06133,0.403059 0.131432,0.911265 0.131432,1.016411 0.0044,0.06134 0.01314,0.105146 0.02629,0.09638 0.03067,-0.03505 0.170863,0.52573 0.153338,0.617733 -0.01314,0.04819 -0.0088,0.06134 0.0044,0.02629 0.03505,-0.0701 0.337343,0.543254 0.332962,0.665924 0,0.03943 0.01314,0.06572 0.03067,0.05695 0.04819,-0.03067 0.232197,0.227817 0.20153,0.28039 -0.01752,0.02629 -0.0044,0.03943 0.03067,0.03505 0.03067,-0.0088 0.05257,0.01314 0.04381,0.04381 -0.0044,0.03505 0.0088,0.04819 0.02629,0.03505 0.05257,-0.03067 0.192768,0.12267 0.153338,0.170862 -0.0219,0.01752 -0.01314,0.02191 0.01314,0.0088 0.06134,-0.03505 0.249722,0.157719 0.205911,0.210292 -0.0219,0.01752 -0.01314,0.02191 0.01314,0.0088 0.06572,-0.03505 0.245341,0.09638 0.210292,0.153338 -0.01752,0.03067 -0.0088,0.03505 0.02191,0.01752 0.03067,-0.02191 0.12267,0.01314 0.214673,0.0701 0.08762,0.06134 0.276008,0.153338 0.411821,0.210292 0.135814,0.05695 0.236578,0.12267 0.223435,0.144576 -0.01314,0.02629 -0.0044,0.03067 0.02191,0.01314 0.02629,-0.01314 0.192767,0.01314 0.36801,0.06133 0.718497,0.20153 1.279276,0.267246 2.462167,0.293532 2.045965,0.04381 3.329621,-0.184005 4.289078,-0.762307 0.998886,-0.604589 1.54214,-1.559665 1.756813,-3.101805 0.07448,-0.52573 0.08762,-2.002154 0.02629,-2.519121 -0.302294,-2.466548 -1.546521,-3.671345 -3.886018,-3.754586 -0.937551,-0.03505 -1.769956,0.0701 -2.589218,0.332962 l -0.148957,0.04381 0.02191,-1.060221 c 0.02191,-1.178511 0.04381,-1.305562 0.293532,-1.568427 0.118289,-0.127051 0.20153,-0.170862 0.36363,-0.192767 0.354867,-0.05257 0.626494,-0.0088 0.810499,0.140194 0.236579,0.192768 0.319819,0.455633 0.354868,1.086508 l 0.02629,0.52573 2.225589,0.01314 2.221208,0.0088 v -1.695478 -1.699859 l -0.319819,-0.20153 c -1.717384,-1.099651 -3.737061,-1.572807 -6.142274,-1.436994 z m 1.594713,8.814733 c 0.12267,0.08324 0.179624,0.144576 0.1621,0.188387 -0.01314,0.03505 -0.0088,0.05695 0.01314,0.04381 0.05257,-0.03505 0.153338,0.219054 0.109527,0.284771 -0.01752,0.03067 -0.01314,0.04381 0.01314,0.02629 0.07448,-0.04819 0.100765,0.254103 0.100765,1.226702 0.0044,1.196035 -0.02629,1.406327 -0.24534,1.708622 -0.210292,0.28477 -0.823644,0.363629 -1.169749,0.148956 -0.341724,-0.210291 -0.424965,-0.582683 -0.424965,-1.861959 0,-1.279275 0.08762,-1.612237 0.481919,-1.813767 0.280389,-0.144575 0.700973,-0.12267 0.959457,0.04819 z" id="path4" style="fill:&stroke_color;;stroke:none;stroke-width:0.00438108"/>
				<path d="m -82.843859,-29.028817 -2.729413,0.0088 -1.493948,2.247494 c -0.823643,1.231084 -2.019678,3.018564 -2.659315,3.969259 l -1.160987,1.726145 0.0044,1.713002 c 0,0.941933 0.0044,1.778719 0.0044,1.853197 l 0.0044,0.144576 h 3.110566 3.110567 v 0.113908 c 0,0.06133 -0.01752,0.100765 -0.03505,0.08762 -0.02191,-0.01314 -0.03067,0.03505 -0.01752,0.100764 0.0088,0.0701 -0.02191,0.20153 -0.07448,0.302295 -0.07448,0.144576 -0.144576,0.205911 -0.372392,0.315438 l -0.28477,0.135813 0.0088,1.344992 0.0088,1.344991 2.900275,0.0088 c 1.599094,0.0044 2.944086,-0.0044 2.992278,-0.01752 0.08762,-0.02191 0.08762,-0.05695 0.08762,-1.375659 v -1.353754 l -0.118289,-0.04819 c -0.258483,-0.09638 -0.424965,-0.359248 -0.477537,-0.736021 l -0.03067,-0.223435 h 0.508205 0.503824 l 0.01314,-0.12267 c 0.0088,-0.06572 0.01752,-0.77107 0.01752,-1.564046 l -0.0044,-1.445756 -0.512586,-0.01314 -0.512587,-0.01314 v -4.245266 c 0,-2.335116 -0.01314,-4.249648 -0.03067,-4.25841 -0.02191,-0.0088 -1.261751,-0.0088 -2.760081,0 z m -1.699859,6.580382 v 1.927675 h -1.283656 -1.279276 l 0.09638,-0.153337 c 0.552016,-0.858692 2.427118,-3.697632 2.444643,-3.702013 0.01314,0 0.02191,0.867454 0.02191,1.927675 z" id="path5" style="fill:&stroke_color;;stroke:none;stroke-width:0.00438108"/>
				<path d="m -76.009374,-28.83605 c -0.02191,0.105146 -0.02629,0.192768 -0.01314,0.20153 0.03067,0.01314 0.01752,0.398678 -0.01753,0.433727 -0.01314,0.01314 -0.0044,0.05695 0.01753,0.09638 0.0219,0.04381 0.0219,0.100765 0,0.131432 -0.01753,0.03505 -0.01753,0.118289 0,0.188387 0.02629,0.08324 0.0219,0.113908 -0.0088,0.09638 -0.03067,-0.01752 -0.03067,0 -0.0044,0.05257 0.0219,0.04819 0.03505,0.210292 0.02629,0.368011 -0.01314,0.315438 -0.01314,0.411822 0.0044,0.700973 0.0088,0.109527 -0.0088,0.223435 -0.03505,0.258484 -0.03505,0.04819 -0.03505,0.05695 0.0044,0.03505 0.03943,-0.02629 0.04819,0.02191 0.03067,0.197149 -0.01314,0.127051 -0.03505,0.24534 -0.04819,0.262865 -0.0088,0.02191 0,0.03505 0.01753,0.03505 0.0219,0 0.03067,0.092 0.02629,0.205911 -0.0088,0.118289 -0.01752,0.236578 -0.01314,0.262865 0,0.06572 0,0.118289 0,0.350486 0,0.092 0.0044,0.24096 0.01314,0.332962 0.0044,0.092 -0.0044,0.188387 -0.02191,0.219054 -0.01753,0.02629 -0.0088,0.07448 0.01314,0.105146 0.03067,0.03505 0.03067,0.07886 0,0.135814 -0.02629,0.04819 -0.03505,0.09638 -0.02191,0.109527 0.04381,0.04381 0.04381,0.534492 -0.0044,0.595827 -0.03067,0.04819 -0.03067,0.05695 0.0088,0.03505 0.03505,-0.02191 0.04819,0.0044 0.03943,0.08762 -0.0088,0.0701 -0.01752,0.179624 -0.02191,0.24534 -0.0044,0.08324 -0.02191,0.113908 -0.05695,0.09638 -0.03067,-0.01752 -0.02629,-0.0044 0.0088,0.03067 0.04819,0.03943 0.06572,0.118289 0.05695,0.254102 -0.0088,0.109527 -0.01314,0.223435 -0.01314,0.249722 0,0.140194 0,0.197148 0,0.350486 0,0.092 0.0044,0.24096 0.0088,0.332962 0.0088,0.092 0,0.188387 -0.01752,0.219054 -0.01753,0.02629 -0.0088,0.07448 0.01314,0.105146 0.03067,0.03505 0.03067,0.07886 0,0.135814 -0.02629,0.04819 -0.03505,0.09638 -0.02191,0.109527 0.04381,0.04381 0.04381,0.534492 -0.0044,0.595827 -0.03505,0.05257 -0.03067,0.05695 0.01752,0.02629 0.04819,-0.02629 0.05695,-0.01752 0.03505,0.03505 -0.01314,0.04381 -0.01314,0.07448 0.0044,0.07448 0.0701,0.0044 3.745824,0.0044 4.13574,0 h 0.424965 l 0.131432,-0.192767 c 0.306676,-0.442489 0.854311,-0.538873 1.288038,-0.232198 0.07448,0.04819 0.113908,0.109527 0.100764,0.148957 -0.01314,0.03505 -0.0088,0.04819 0.01753,0.03505 0.05695,-0.03505 0.153338,0.170862 0.214673,0.451251 0.03067,0.140195 0.04819,0.722878 0.04819,1.463281 0,1.406326 -0.03505,1.647286 -0.289152,1.897007 -0.297913,0.297914 -0.85431,0.289152 -1.165367,-0.01752 -0.254103,-0.258484 -0.337343,-0.696592 -0.341724,-1.813767 v -0.68783 h -2.278162 c -1.993391,0 -2.278161,0.0088 -2.282542,0.06572 -0.0044,0.06572 -0.01753,0.12267 -0.03943,0.184005 -0.0044,0.02191 -0.0044,0.05257 0,0.07886 0.02629,0.113908 0.0219,0.337343 -0.0088,0.385535 -0.01753,0.02629 -0.0088,0.07448 0.01314,0.105146 0.03067,0.03505 0.03067,0.07886 0,0.135814 -0.02629,0.04819 -0.03505,0.09638 -0.02191,0.109527 0.04381,0.04381 0.04381,0.534492 -0.0044,0.595827 -0.03067,0.04819 -0.03067,0.05695 0.0088,0.03505 0.03505,-0.02191 0.04819,0.0044 0.03943,0.08762 -0.0088,0.0701 -0.01752,0.179624 -0.02191,0.24534 -0.0044,0.08324 -0.02191,0.113908 -0.05695,0.09638 -0.03067,-0.01752 -0.02629,-0.0044 0.0088,0.03067 0.07448,0.06133 0.08762,0.36801 0.02191,0.473156 -0.02191,0.03505 -0.01752,0.04819 0.01314,0.02629 0.03067,-0.01752 0.04381,0.01314 0.03505,0.092 -0.0088,0.0701 -0.02191,0.122671 -0.02629,0.122671 -0.0044,0 -0.0088,0.06572 -0.01314,0.144575 -0.0044,0.07448 0,0.140195 0.01752,0.140195 0.01314,0 0.01314,0.092 0.0088,0.205911 -0.0088,0.118289 -0.01752,0.236578 -0.01314,0.262864 0,0.113909 0,0.170863 -0.0044,0.319819 -0.0088,0.276008 0,0.293533 0.24534,0.460014 0.131433,0.092 0.227816,0.184005 0.214673,0.201529 -0.01314,0.02191 0.01314,0.02629 0.05257,0.0088 0.05257,-0.01752 0.06572,-0.01314 0.04381,0.02629 -0.01752,0.02629 -0.01752,0.04381 0.0044,0.03943 0.06572,-0.01752 0.232197,0.05695 0.210292,0.09638 -0.01314,0.02191 0,0.05257 0.02629,0.0701 0.03505,0.02191 0.03943,0.01314 0.01752,-0.02629 -0.03943,-0.06572 -0.07448,-0.08324 0.573921,0.249722 0.911265,0.464394 1.835673,0.736021 3.128091,0.911264 0.346106,0.04819 1.713002,0.05696 2.19054,0.01753 1.17413,-0.100765 2.146729,-0.40306 2.817035,-0.867454 0.516967,-0.354867 1.01641,-1.003267 1.252989,-1.621 0.324199,-0.836786 0.442489,-1.651667 0.442489,-3.018564 0,-1.003267 -0.03505,-1.406326 -0.179625,-2.15111 -0.332962,-1.713002 -1.17851,-2.615505 -2.786367,-2.970372 -0.267245,-0.06133 -0.556397,-0.07886 -1.305561,-0.07886 -0.854311,0 -1.016411,0.01314 -1.423851,0.100765 -0.254103,0.05695 -0.556398,0.144576 -0.679068,0.188387 -0.118289,0.04381 -0.223435,0.08324 -0.227816,0.08324 -0.0088,0 -0.01314,-0.473157 -0.01314,-1.047078 v -1.051459 l 0.490681,0.02191 c 0.902502,0.03067 1.090889,0.166481 1.235464,0.898122 l 0.02629,0.113908 2.177397,-0.0088 c 1.200415,-0.0044 2.216826,-0.01314 2.260637,-0.01752 0.0701,-0.0044 0.07448,-0.135813 0.07448,-2.085394 v -2.081013 h -5.406253 -5.410633 z" id="path6" style="fill:&stroke_color;;stroke:none;stroke-width:0.00438108"/>
				<path d="m -55.755641,-25.677291 c 0.01314,0.04381 0.03943,0.06572 0.05257,0.05257 0.01314,-0.01314 0,-0.04819 -0.03067,-0.07886 -0.04381,-0.03943 -0.04819,-0.03505 -0.0219,0.02629 z" id="path7" style="fill:&stroke_color;;stroke:none;stroke-width:0.00438108"/>
				<path d="m -70.108059,-25.629099 c 0,0.0088 0.03067,0.03943 0.06572,0.0701 0.03943,0.03067 0.06572,0.03505 0.06572,0.0088 0,-0.02191 -0.03067,-0.05257 -0.06572,-0.0701 -0.03505,-0.01314 -0.06572,-0.01752 -0.06572,-0.0088 z" id="path8-6" style="fill:&stroke_color;;stroke:none;stroke-width:0.00438108"/>
				<path d="m -72.714802,-10.637043 c -2.002153,0.157719 -3.154377,0.595827 -3.93421,1.5070913 -0.521348,0.604589 -0.77107,1.2880375 -0.871835,2.357021 -0.07448,0.8280242 0.03505,1.8137672 0.249722,2.2693995 0.03943,0.083241 0.05695,0.1752432 0.03943,0.2059107 -0.01752,0.026286 -0.01752,0.03943 0.0044,0.021905 0.04819,-0.048192 0.166481,0.1270514 0.127051,0.1927676 -0.01752,0.030668 -0.01314,0.035049 0.01752,0.017524 0.04381,-0.026287 0.157719,0.1182891 0.1621,0.2015297 0,0.021905 0.01314,0.030668 0.03067,0.021905 0.05257,-0.017524 0.337343,0.2891512 0.311057,0.332962 -0.01314,0.026286 -0.0044,0.030668 0.02191,0.013143 0.06133,-0.03943 0.503824,0.2541026 0.455632,0.3022945 -0.01752,0.021905 -0.0088,0.021905 0.02191,0.00438 0.02629,-0.013143 0.12267,0.00438 0.205911,0.048192 l 0.157718,0.074478 -0.328581,0.1752432 c -0.950694,0.5169675 -1.415088,1.1522241 -1.673572,2.2825427 -0.06133,0.27600804 -0.07886,0.5257296 -0.07448,1.1828916 0.0044,0.876216 0.0701,1.3187051 0.28039,1.8707212 0.06572,0.1752432 0.07448,0.2365783 0.03067,0.2628648 -0.03505,0.021905 -0.03067,0.035049 0.02191,0.035049 0.0701,0 0.153337,0.1533378 0.127051,0.2409594 -0.0044,0.021905 0.0044,0.030668 0.02191,0.013143 0.03943,-0.03943 0.205911,0.219054 0.175243,0.2672459 -0.01314,0.017524 0.03505,0.07886 0.109527,0.1314324 0.08324,0.061335 0.122671,0.1226703 0.109527,0.1621 -0.01314,0.035049 -0.0088,0.056954 0.01314,0.043811 0.03505,-0.026286 0.170862,0.096384 0.175243,0.1577189 0.0044,0.021905 0.01752,0.035049 0.03943,0.03943 0.06572,0.00438 0.179624,0.1401945 0.153337,0.1840053 -0.01314,0.021905 -0.0088,0.030668 0.01753,0.017524 0.02191,-0.013143 0.118289,0.043811 0.214673,0.1314324 0.092,0.087622 0.188386,0.1577188 0.20591,0.1533378 0.06134,-0.017524 0.337344,0.1927675 0.302295,0.2321972 -0.01752,0.021905 -0.0088,0.021905 0.01752,0.00876 0.03067,-0.017524 0.166481,0.021905 0.302295,0.08324 0.705354,0.3066756 1.528997,0.5082053 2.387688,0.5783025 0.635257,0.048192 2.203684,0.030668 2.672459,-0.030667 1.152224,-0.1489567 2.120443,-0.4687756 2.773224,-0.9200268 1.187273,-0.8148809 1.765575,-2.2168265 1.677953,-4.06126118 -0.0701,-1.52023472 -0.639637,-2.52350212 -1.752432,-3.08428032 l -0.319818,-0.1577189 0.328581,-0.1752432 c 0.188386,-0.096384 0.468775,-0.3022945 0.652781,-0.4731566 0.258483,-0.2409594 0.354867,-0.3680107 0.495062,-0.657162 0.258483,-0.5432539 0.328581,-0.9244079 0.328581,-1.8006239 -0.0044,-0.4118215 -0.03067,-0.9025025 -0.06134,-1.09527 -0.319818,-1.9364374 -1.550902,-2.9747537 -3.899161,-3.2858107 -0.490681,-0.06572 -2.072251,-0.118289 -2.523502,-0.08324 z m 1.239846,3.3077152 c 0.05695,0.021905 0.08762,0.056954 0.07448,0.08324 -0.01314,0.021905 0,0.030668 0.03505,0.017524 0.08324,-0.030667 0.214673,0.1577189 0.306675,0.438108 0.100765,0.2891513 0.140195,1.0251727 0.07886,1.4457564 -0.09638,0.6834485 -0.293532,0.9112647 -0.797357,0.9375511 -0.36801,0.021905 -0.56954,-0.043811 -0.736021,-0.2321972 -0.170862,-0.1971486 -0.262865,-0.5169674 -0.293532,-1.0295538 -0.04819,-0.7579268 0.105145,-1.3888024 0.385535,-1.5947131 0.197148,-0.1401946 0.657162,-0.1708621 0.946313,-0.065716 z m 0.05695,5.9276012 c 0.113908,0.061335 0.188386,0.1314324 0.188386,0.1708621 -0.0044,0.03943 0.0088,0.065716 0.02191,0.052573 0.03943,-0.021905 0.179624,0.25848372 0.179624,0.35486748 0,0.0394297 -0.02191,0.052573 -0.05257,0.0350486 -0.03067,-0.0175243 -0.03505,-0.0131432 -0.01752,0.0219054 0.01752,0.0262865 0.04819,0.0394297 0.06572,0.0262865 0.04819,-0.0262865 0.092,0.42934584 0.092,0.98136192 0,0.52134852 -0.03943,0.9331701 -0.08762,0.9025025 -0.01752,-0.00876 -0.02191,0.026287 -0.01314,0.078859 0.02629,0.1401946 -0.1621,0.4731567 -0.3242,0.5826837 -0.276008,0.1840053 -0.740403,0.1796243 -1.025173,-0.00438 -0.332962,-0.2146729 -0.438108,-0.657162 -0.416202,-1.77433742 0.01752,-0.95507544 0.127051,-1.28803748 0.473156,-1.45889958 0.227816,-0.1139081 0.679068,-0.096384 0.915646,0.030668 z" id="path9" style="fill:&stroke_color;;stroke:none;stroke-width:0.00438108"/>
				<path d="m -71.269045,-7.0533198 c 0.04381,0.061335 0.08324,0.1139081 0.09638,0.1139081 0.03067,0 -0.07448,-0.1708621 -0.12267,-0.2015297 -0.02629,-0.013143 -0.01314,0.021905 0.02629,0.087622 z" id="path10" style="fill:&stroke_color;;stroke:none;stroke-width:0.00438108"/>
				<path d="m -59.229838,-10.619519 c -3.334001,0.262865 -4.617658,1.6954781 -4.613277,5.1521502 0,1.1609862 0.105146,1.9802481 0.346106,2.6680777 0.105145,0.2979134 0.113908,0.3461053 0.03943,0.3022945 -0.03067,-0.017524 -0.03505,-0.013143 -0.01752,0.021905 0.01752,0.026286 0.05257,0.035049 0.07886,0.021905 0.03505,-0.021905 0.03943,-0.00438 0.02191,0.043811 -0.01752,0.03943 -0.01314,0.065716 0.0044,0.052573 0.05257,-0.030668 0.192767,0.276008 0.157719,0.3329621 -0.01753,0.026286 -0.0088,0.035049 0.01752,0.017524 0.04819,-0.026286 0.240959,0.2497215 0.240959,0.3504864 0,0.030667 0.01752,0.048192 0.03505,0.035049 0.04381,-0.026286 0.240959,0.2409594 0.223435,0.2979135 -0.0044,0.021905 0.0044,0.030668 0.02629,0.017524 0.05257,-0.030668 0.236578,0.166481 0.197148,0.2146729 -0.0219,0.017524 -0.0088,0.021905 0.02191,0.00438 0.0701,-0.03943 0.192767,0.052573 0.153337,0.11828914 -0.01314,0.0262865 -0.0044,0.0306676 0.02191,0.0131432 0.06133,-0.0350486 0.455632,0.21029184 0.411821,0.25848372 -0.01752,0.0219054 -0.0088,0.0219054 0.01752,0.008762 0.03067,-0.0175243 0.157719,0.0175243 0.28477,0.0744784 0.578302,0.25410264 1.252989,0.3504864 2.22997,0.31981884 0.832405,-0.0262865 1.331848,-0.12267024 1.857578,-0.35486748 0.140194,-0.0613351 0.267245,-0.11390808 0.280389,-0.11390808 0.0088,0 0.0088,0.42934584 -0.0044,0.95069436 -0.02629,1.0076484 -0.08324,1.3406104 -0.276008,1.5509023 -0.188387,0.2059107 -0.516968,0.2891513 -0.876216,0.2146729 -0.460014,-0.096384 -0.652781,-0.4205837 -0.705354,-1.1960348 l -0.02629,-0.38115396 h -2.203683 -2.208064 l -0.0044,0.14019456 c 0,0.0788594 -0.0044,0.3723918 -0.0044,0.6483998 0,0.3241999 -0.02191,0.5169674 -0.05257,0.5344918 -0.03505,0.026286 -0.03505,0.035049 0,0.035049 0.03943,0 0.05257,0.2321972 0.05257,0.819262 0.0044,0.4556323 0.0044,0.9025024 0.0044,0.9988862 0.0044,0.166481 0.01752,0.1883864 0.219054,0.3066756 0.12267,0.070097 0.20591,0.1445756 0.192767,0.166481 -0.01314,0.026286 -0.0044,0.030668 0.02191,0.013143 0.03067,-0.017524 0.192768,0.043811 0.368011,0.1401945 0.175243,0.092003 0.411822,0.2059108 0.52573,0.2497216 0.118289,0.043811 0.197148,0.096384 0.179624,0.1226702 -0.01314,0.021905 -0.0088,0.030668 0.01752,0.017524 0.02191,-0.013143 0.306676,0.061335 0.630876,0.166481 0.521348,0.1752432 0.714116,0.2234351 1.200416,0.3066756 0.07448,0.013143 0.1621,0.035049 0.197148,0.043811 0.455633,0.1314324 2.501597,0.2015297 3.351527,0.1139081 2.308829,-0.2453405 3.544293,-1.2486078 3.986782,-3.2419992 0.210292,-0.9331701 0.219054,-1.16536726 0.214673,-4.7797583 0,-3.233237 -0.0044,-3.4260046 -0.09638,-4.0130693 -0.354868,-2.3526399 -1.450138,-3.399718 -3.886018,-3.719537 -0.635257,-0.08324 -2.181778,-0.118289 -2.856465,-0.06572 z m 1.577189,3.3821939 c 0.109527,0.052573 0.1621,0.1051459 0.144576,0.1445756 -0.01314,0.035049 0,0.074478 0.02629,0.092003 0.03067,0.017524 0.03505,0.013143 0.01752,-0.017524 -0.01752,-0.030668 -0.02191,-0.052573 -0.0088,-0.052573 0.04819,0 0.162099,0.271627 0.140194,0.3329621 -0.01314,0.035049 -0.0088,0.052573 0.01314,0.03943 0.07886,-0.048192 0.113908,0.4030594 0.113908,1.4457564 -0.0044,0.8630728 -0.01752,1.09527 -0.07886,1.3011808 -0.135814,0.4512512 -0.389916,0.6483998 -0.836786,0.6483998 -0.297914,0 -0.44687,-0.052573 -0.630876,-0.2321972 -0.236578,-0.2278162 -0.280389,-0.4512513 -0.302294,-1.5509024 -0.03067,-1.4107077 0.05257,-1.8838644 0.389916,-2.1292048 0.236578,-0.1752432 0.69221,-0.1840054 1.012029,-0.021905 z" id="path11" style="fill:&stroke_color;;stroke:none;stroke-width:0.00438108"/>
				<path d="m -90.883141,-10.220841 c -0.0088,0.188387 -0.0088,5.7567395 0.0044,6.0064611 0.0044,0.074478 0.127051,0.078859 1.975867,0.078859 h 1.971486 V -4.963545 c 0,-1.8531969 0.192767,-2.1511103 1.375659,-2.1511103 h 0.36801 l -0.166481,0.4468702 c -0.092,0.2497215 -0.328581,0.8937403 -0.525729,1.4369942 -0.197149,0.5432539 -0.429346,1.1741294 -0.512587,1.4019456 -0.08324,0.2278162 -0.170862,0.4643945 -0.188386,0.5257296 -0.179624,0.5520161 -0.604589,1.6166185 -0.635257,1.590332 -0.01752,-0.021905 -0.02191,-0.013143 -0.0044,0.017524 0.03067,0.056954 0.01314,0.1182891 -0.464394,1.4150888 -0.184006,0.49506204 -0.534492,1.4501375 -0.779832,2.1248238 -0.245341,0.6746863 -0.543254,1.4939483 -0.665925,1.8181482 -0.118289,0.3241999 -0.276008,0.7491647 -0.346105,0.9375511 -0.0701,0.1883865 -0.12267,0.3548675 -0.113908,0.3592486 0.03505,0.035049 5.042623,0.017524 5.073291,-0.013143 0.01752,-0.017524 0.118289,-0.2803891 0.227816,-0.5826836 0.232197,-0.6396377 0.657162,-1.7962428 1.673572,-4.5563232 0.40306,-1.09527 0.832406,-2.2606373 0.950695,-2.5848372 0.442489,-1.2091781 1.480805,-4.0218314 1.629762,-4.4248908 l 0.157718,-0.4162026 v -1.4150888 -1.4107086 h -5.493874 -5.493874 z" id="path12" style="fill:&stroke_color;;stroke:none;stroke-width:0.00438108"/>
			</g>
		</g>
	</g>
	<g id="layer4" style="display:inline" transform="translate(0,55)">
		<rect style="display:none;opacity:1;fill:&fill_color;;fill-opacity:1;stroke:none;stroke-width:3.5;stroke-linecap:butt;stroke-linejoin:round;stroke-miterlimit:1.6;stroke-dasharray:none;stroke-dashoffset:0;stroke-opacity:1;paint-order:markers fill stroke" id="rect61" width="55" height="55" x="0" y="-55"/>
		<rect style="display:none;fill:&fill_color;;stroke-width:3.5;stroke-linejoin:round;stroke-miterlimit:1.6;paint-order:markers fill stroke" id="rect1" width="55" height="55" x="0" y="-55"/>
		<rect style="fill:&fill_color;;stroke-width:3.5;stroke-linejoin:round;stroke-miterlimit:1.6;paint-order:markers fill stroke" id="rect2" width="46" height="45" x="4.5" y="-50"/>
		<path d="m 43.32232,-32.653713 c -3.536953,2.718798 -6.501202,4.993905 -6.58931,5.05684 -0.08495,0.06295 -0.519212,0.393342 -0.959762,0.736338 -0.440544,0.342997 -1.661488,1.28388 -2.712502,2.092596 l -1.910083,1.469536 -0.0032,2.035951 v 2.039098 h 0.35558 0.35244 l 0.629351,-0.481451 c 0.346141,-0.264331 0.682848,-0.519215 0.748925,-0.569567 l 0.116433,-0.08811 v 2.813205 2.8132 l -0.302088,0.173076 c -0.355583,0.20139 -0.402784,0.267474 -0.383904,0.534947 0.01894,0.283208 0.185655,0.399637 0.352435,0.254888 0.03776,-0.03144 0.125884,-0.0944 0.201396,-0.141614 l 0.132164,-0.08495 v 0.799278 0.79613 l 0.110134,0.07553 0.110134,0.07552 v 2.9327799 2.9359243 h -5.355778 -5.352634 l -0.563269,0.3650239 -0.560123,0.3650215 V -5.3272625 -5 h 6.661686 6.66483 l 0.365022,-0.3650262 0.365024,-0.3650227 -0.01575,-0.3178205 c -0.0094,-0.1762253 -0.02831,-0.3304087 -0.04407,-0.3398519 -0.01894,-0.012557 2.699915,-2.1177702 6.038627,-4.6792297 l 6.066945,-4.663494 h 0.588446 0.588443 l 0.443692,-0.383905 c 0.361877,-0.311525 0.440546,-0.39649 0.427958,-0.449986 -0.0094,-0.03463 -0.01894,-0.179354 -0.01894,-0.324114 v -0.258036 h -0.40902 -0.409082 v -2.910749 -2.913895 l 0.110135,-0.09441 0.110134,-0.09755 v -1.09822 -1.098214 l 0.176224,-0.09755 c 0.0944,-0.05349 0.191955,-0.129014 0.217128,-0.166774 0.141593,-0.220275 0.04719,-0.616765 -0.147894,-0.616765 -0.03463,0 -0.103856,0.02832 -0.154194,0.06607 l -0.09125,0.06295 v -3.222278 -3.22228 L 49.886337,-33.053347 50.5,-33.553676 v -2.023363 -2.023366 H 50.125534 49.75107 Z m 4.235535,9.566144 0.110134,0.07237 v 2.932774 2.935926 h -5.384103 -5.384098 l -0.531805,0.368172 -0.534948,0.368171 0.0094,0.333554 0.0094,0.330412 h 5.277111 c 2.904456,0 5.280259,0.0064 5.280259,0.01575 0,0.0094 -0.02518,0.03144 -0.05665,0.05034 -0.03148,0.02203 -0.884239,0.673404 -1.897494,1.450655 -2.998859,2.303425 -5.283407,4.059316 -7.155724,5.4973837 -0.969204,0.7426336 -1.884911,1.4475072 -2.035954,1.5670859 -0.151044,0.1164336 -0.283208,0.2139773 -0.292651,0.2139773 -0.0094,0 -0.01575,-1.1831813 -0.01575,-2.6275412 v -2.6306977 l 0.110134,-0.0944 0.110134,-0.09755 v -4.666642 -4.669787 l 1.126541,-0.859066 c 0.616764,-0.475159 2.913895,-2.234196 5.104037,-3.914567 2.190144,-1.677222 4.298475,-3.294653 4.688669,-3.593596 0.390199,-0.295795 0.849625,-0.651378 1.022699,-0.78669 l 0.314677,-0.245449 0.0094,3.990091 0.0061,3.990088 z" id="path1" style="display:inline;fill:&stroke_color;;stroke:none;stroke-width:0.00314674"/>
		<path d="m 14.42447,-38.364824 c -1.316014,-0.449296 -2.621602,-0.587914 -3.83672,-0.405346 -0.233119,0.03597 -0.439557,0.07545 -0.45708,0.08799 -0.01605,0.0092 -0.1550923,0.311481 -0.3045186,0.665702 -0.2160121,0.498596 -0.2830731,0.634708 -0.3096125,0.603069 -0.023177,-0.03019 -0.02465,-0.02679 -0.00688,0.02522 0.013911,0.04228 -0.029835,0.18044 -0.1312283,0.414475 -0.1175574,0.271345 -0.1585892,0.338165 -0.1817685,0.307982 -0.025099,-0.03505 -0.026568,-0.03166 -0.013694,0.02227 0.012441,0.04567 -0.037182,0.197398 -0.1463751,0.44014 l -0.1601722,0.369707 1.7796872,0.783114 1.781142,0.779755 0.19397,-0.44772 c 0.380592,-0.878479 0.686843,-1.120444 1.155367,-0.909404 0.203508,0.08817 0.427941,0.286112 0.370511,0.325686 -0.01752,0.01255 -0.01716,0.04896 -3.32e-4,0.08445 0.01685,0.0355 0.03766,0.05257 0.04353,0.039 0.0059,-0.01357 0.0267,0.0035 0.04353,0.03901 0.02024,0.03697 0.01956,0.08502 -0.0024,0.107743 -0.02193,0.02273 -0.02444,0.03775 -0.003,0.03493 0.03595,-0.0086 0.04229,0.106945 0.01822,0.301973 -0.02192,0.143583 -0.299538,0.756486 -0.419589,0.922011 -0.252768,0.341677 -0.49391,0.442655 -0.913015,0.377907 -0.168796,-0.02882 -0.412102,-0.118109 -1.029412,-0.385553 l -0.807252,-0.349733 -0.296832,0.685146 c -0.164581,0.379883 -0.397224,0.90753 -0.521549,1.175944 l -0.219885,0.48886 0.732191,0.309123 c 0.996753,0.423741 1.266845,0.609278 1.422667,0.974888 0.05959,0.1507 0.06548,0.25799 0.0062,0.171846 -0.01787,-0.02385 -0.02273,-0.02193 -0.02091,0.01108 0.0047,0.02623 0.02408,0.04669 0.04206,0.0424 0.06411,-0.0085 0.02389,0.344708 -0.04982,0.449744 -0.05517,0.08084 -0.05764,0.09588 -0.0095,0.0684 0.101181,-0.05688 -0.367586,0.904256 -0.529467,1.091943 -0.165273,0.186218 -0.437617,0.32202 -0.627327,0.304285 -0.201356,-0.01875 -0.542802,-0.206962 -0.619463,-0.336861 -0.08627,-0.154203 -0.108114,-0.401343 -0.05386,-0.619546 0.02758,-0.100847 0.05515,-0.201698 0.05911,-0.220126 0.0054,-0.02183 0.118092,-0.291256 0.249923,-0.604758 l 0.241995,-0.567909 -1.7734786,-0.76025 -1.7768698,-0.761719 -0.1893425,0.38124 c -0.1027495,0.209276 -0.1805258,0.36089 -0.1721609,0.332285 0.00835,-0.02861 -7.991e-4,-0.04466 -0.015379,-0.0389 -0.01944,0.0077 -0.024445,0.03775 -0.014356,0.07033 0.024882,0.09135 -0.5790699,1.485384 -0.620116,1.431345 -0.025099,-0.03505 -0.031432,-0.02972 -0.010287,0.02374 0.013911,0.04228 -0.029835,0.180439 -0.1312286,0.414475 -0.1175574,0.271345 -0.1585892,0.338166 -0.1817683,0.30798 -0.025099,-0.03505 -0.026119,-0.0234 -0.011756,0.02714 0.010972,0.04906 -0.00926,0.132954 -0.060581,0.223517 -0.04355,0.08184 -0.068063,0.147764 -0.056374,0.1488 0.045107,0.0074 0.1377151,0.156346 0.1075303,0.179525 -0.017518,0.01255 -0.017632,0.0407 -0.00316,0.06309 0.02126,0.02532 0.026119,0.0234 0.022839,-0.0062 -0.010858,-0.07722 0.00848,-0.05676 0.2112074,0.228471 0.1057199,0.146513 0.3168164,0.403135 0.4734134,0.57169 0.1565962,0.168555 0.2826666,0.323884 0.2787111,0.342313 9.365e-4,0.01651 0.018317,0.03211 0.041139,0.02591 0.021362,-0.0029 0.1472057,0.08795 0.2826576,0.203026 0.6099823,0.526118 1.4109123,1.002023 2.4235949,1.444786 0.788816,0.345793 1.3453,0.530472 1.883685,0.626751 0.889541,0.159792 1.494956,0.119949 2.134723,-0.138662 0.610599,-0.247077 1.012828,-0.580399 1.474501,-1.218301 0.224503,-0.313638 0.676769,-1.273862 0.796353,-1.689352 0.305169,-1.076323 0.07513,-2.070298 -0.629939,-2.730267 -0.08898,-0.08286 -0.09136,-0.09597 -0.02488,-0.09135 0.373653,0.02088 0.723333,-0.03307 1.062153,-0.164241 0.633889,-0.245044 1.024242,-0.643938 1.414224,-1.441809 0.944435,-1.947474 0.419839,-3.57262 -1.549817,-4.800599 -0.416407,-0.256945 -1.330616,-0.685245 -1.853629,-0.863497 z m -0.202125,3.135188 c -0.0073,0.01695 -0.02151,0.03096 -0.02826,0.02804 -0.01018,-0.0044 -0.01979,-0.02872 -0.02261,-0.05008 -0.0014,-0.02476 0.01129,-0.0354 0.02826,-0.02804 0.02035,0.0088 0.03143,0.02972 0.02261,0.05008 z" id="path2-6" style="display:inline;fill:&stroke_color;;stroke:none;stroke-width:0.00369645"/>
		<path d="m 11.723906,-47.192957 -0.154157,0.677113 0.06543,0.06808 c 0.06034,0.05998 0.08779,0.142542 0.03255,0.09066 -0.01559,-0.01278 -0.02047,-0.01164 -0.01199,0.0019 0.0085,0.0135 0.02627,0.02679 0.03946,0.02979 0.01539,0.0035 0.02018,0.02309 0.01517,0.04508 -0.0067,0.01928 -0.0031,0.03398 0.0072,0.02938 0.02768,-0.0099 0.02684,0.105542 0.0022,0.132317 -0.0145,0.01288 -0.0084,0.01658 0.01168,0.0096 0.02279,-0.0087 0.02587,0.0082 0.0036,0.06556 -0.01443,0.04296 -0.01652,0.07254 -0.0067,0.07016 0.0125,-0.0041 -0.188624,0.909753 -0.444386,2.033146 -0.484495,2.128069 -0.491704,2.149552 -0.624574,2.306603 -0.02829,0.03287 -0.09087,0.07412 -0.139647,0.09539 l -0.09116,0.03474 -0.15616,0.685907 -0.15666,0.688105 1.481734,0.337346 1.481734,0.337345 0.02151,-0.04367 c 0.01264,-0.02487 0.08977,-0.333354 0.169853,-0.685101 l 0.147891,-0.639229 -0.07612,-0.08208 c -0.04815,-0.05258 -0.0852,-0.123453 -0.09876,-0.195912 l -0.02484,-0.114337 0.680572,-3.019939 0.682315,-3.017231 -1.352065,-0.307824 -1.352028,-0.307815 z" id="path3-5-6" style="display:inline;fill:&stroke_color;;stroke:none;stroke-width:0.00225468"/>
		<path d="m 23.024828,-46.394571 -2.303334,1.464386 -0.0636,2.697975 c -0.03934,1.480678 -0.09658,3.630633 -0.129988,4.775989 l -0.06034,2.079381 0.918112,1.446191 c 0.502798,0.796512 0.95319,1.501761 0.992946,1.564741 l 0.08089,0.119907 2.630339,-1.660402 2.630341,-1.660403 0.0608,0.09632 c 0.03274,0.05186 0.03897,0.09456 0.01713,0.0928 -0.02554,5.84e-4 -0.0072,0.04601 0.03897,0.09456 0.04486,0.05458 0.08905,0.182112 0.09838,0.295382 0.01419,0.162013 -0.01234,0.251295 -0.146521,0.46552 l -0.168309,0.266854 0.72539,1.132647 0.72539,1.132646 2.457212,-1.540709 c 1.354565,-0.849866 2.487213,-1.575256 2.520961,-1.612075 0.0624,-0.0653 0.04369,-0.09493 -0.660226,-1.210049 l -0.722626,-1.144753 -0.125751,0.02239 c -0.270024,0.05648 -0.551121,-0.07694 -0.796696,-0.367483 l -0.145203,-0.172568 0.429746,-0.271277 0.42604,-0.268939 -0.05437,-0.110745 c -0.02764,-0.06027 -0.396777,-0.66138 -0.820063,-1.331932 l -0.775457,-1.220204 -0.440464,0.262505 -0.440465,0.262504 -2.266099,-3.589858 c -1.246472,-1.974608 -2.279549,-3.586549 -2.29905,-3.584601 -0.02323,0.0043 -1.071652,0.666074 -2.333964,1.473315 z m 2.075145,6.471841 1.028982,1.630069 -1.085478,0.685209 -1.081775,0.68287 -3.5e-4,-0.181111 c 0.0084,-1.020786 0.07863,-4.422353 0.09111,-4.435412 0.01111,-0.007 0.48157,0.721836 1.047509,1.618375 z" id="path5-2" style="display:inline;fill:&stroke_color;;stroke:none;stroke-width:0.00438108"/>
		<path d="m 12.082956,-21.082775 c -2.1735384,1.389659 -2.5062426,2.799688 -1.194348,5.069769 0.439621,0.762986 0.821526,1.263018 1.246269,1.627098 0.184491,0.157409 0.208713,0.185882 0.141346,0.184273 -0.02754,-3.25e-4 -0.02888,0.0041 -0.0037,0.02079 0.0219,0.01089 0.04911,0.0039 0.06207,-0.01439 0.0156,-0.02719 0.0252,-0.01731 0.03153,0.0208 0.003,0.0323 0.01591,0.04799 0.02292,0.03293 0.02422,-0.03934 0.235939,0.111031 0.233611,0.161252 -0.002,0.02367 0.0073,0.02627 0.01859,0.0051 0.0229,-0.03487 0.258843,0.07616 0.296999,0.142386 0.01162,0.02016 0.03019,0.02527 0.03717,0.01022 0.01991,-0.03327 0.255523,0.07041 0.265142,0.11423 0.0053,0.01601 0.01464,0.01854 0.02456,0.0019 0.02423,-0.03934 0.224335,0.02306 0.215701,0.06912 -0.0083,0.01951 0.0023,0.01764 0.01662,-0.0051 0.03287,-0.0515 0.15133,-0.03581 0.149337,0.02177 9.87e-4,0.02207 0.0086,0.02177 0.01992,6.45e-4 0.02853,-0.04542 0.390273,-0.02811 0.378651,0.01956 -0.0037,0.02079 0.0023,0.01764 0.01531,-5.7e-4 0.01428,-0.02272 0.114173,-0.04604 0.222354,-0.055 0.490497,-0.04409 0.986987,-0.227005 1.641466,-0.603756 0.557568,-0.321104 0.861586,-0.566737 1.132095,-0.911229 0.07236,-0.09147 0.139074,-0.1724 0.148035,-0.177198 0.006,-0.0032 0.168622,0.278925 0.356969,0.626403 0.363634,0.671808 0.450885,0.911414 0.399089,1.119976 -0.05047,0.204083 -0.242972,0.37872 -0.516104,0.460898 -0.350125,0.104566 -0.604316,-0.03814 -0.933793,-0.528565 l -0.162252,-0.240894 -1.502455,0.804351 -1.505426,0.805941 0.05006,0.09375 c 0.02986,0.05183 0.137988,0.246349 0.242501,0.427738 0.122762,0.213061 0.180815,0.347744 0.166556,0.370447 -0.01394,0.03007 -0.0106,0.03583 0.01328,0.02304 0.02688,-0.01439 0.12376,0.133412 0.346059,0.519223 0.175552,0.297818 0.344764,0.591495 0.381261,0.654837 0.06606,0.107787 0.08329,0.117409 0.265474,0.12159 0.110174,0.0013 0.195133,0.01986 0.194466,0.03905 9.88e-4,0.02207 0.0086,0.02178 0.01993,6.44e-4 0.01428,-0.02272 0.148018,-0.04157 0.30399,-0.04219 0.154315,-0.0036 0.358744,-0.015 0.452995,-0.02778 0.09724,-0.01438 0.170908,-0.0087 0.168914,0.01505 -6.74e-4,0.01919 0.0055,0.02338 0.01859,0.0051 0.0099,-0.01664 0.232314,-0.07163 0.493161,-0.120861 0.421806,-0.07513 0.571481,-0.113813 0.934554,-0.236608 0.05576,-0.01854 0.12379,-0.03613 0.151003,-0.04317 0.360411,-0.07994 1.781865,-0.780639 2.328155,-1.14845 1.481225,-1.003955 1.943649,-2.114233 1.490512,-3.585772 -0.209982,-0.690023 -0.291932,-0.845819 -1.663549,-3.219552 -1.2243,-2.124841 -1.300317,-2.249906 -1.585302,-2.60216 -1.132796,-1.416597 -2.276024,-1.704951 -4.057875,-1.026037 -0.464629,0.177164 -1.532298,0.718607 -1.972381,0.999421 z m 2.356011,1.647062 c 0.09458,-0.0054 0.15033,0.0099 0.153319,0.04225 0.0043,0.02784 0.0282,0.04894 0.05276,0.05087 0.02755,3.2e-4 0.02888,-0.0041 0.0053,-0.01792 -0.02357,-0.01376 -0.03485,-0.02655 -0.02595,-0.03132 0.03286,-0.01759 0.213372,0.119344 0.221661,0.167649 0.0043,0.02784 0.01385,0.03778 0.02389,0.02111 0.03552,-0.06045 0.23028,0.223311 0.62511,0.908558 0.32379,0.568819 0.402786,0.726194 0.438936,0.883905 0.07827,0.34613 -0.02032,0.56844 -0.324984,0.731547 -0.203114,0.108743 -0.324573,0.128564 -0.518047,0.07767 -0.247561,-0.06336 -0.362036,-0.194214 -0.793366,-0.908895 -0.555086,-0.915907 -0.67751,-1.257236 -0.540409,-1.541605 0.09494,-0.201517 0.402263,-0.373582 0.68169,-0.383792 z" id="path11-0" style="display:inline;fill:&stroke_color;;stroke:none;stroke-width:0.00335452"/>
		<path d="m 41.111166,-47.739243 c -0.06093,0.110182 -1.705517,3.444109 -1.771379,3.597516 -0.01939,0.04587 0.05278,0.08474 1.159714,0.630781 l 1.180383,0.582269 0.244552,-0.495761 c 0.547334,-1.109561 0.750735,-1.230996 1.458965,-0.881634 l 0.220338,0.10869 -0.231658,0.218384 c -0.128837,0.122344 -0.460692,0.438062 -0.739177,0.705095 -0.278486,0.267034 -0.603835,0.57618 -0.720958,0.687994 -0.11712,0.111816 -0.239457,0.227582 -0.268064,0.259131 -0.270581,0.277455 -0.839444,0.78935 -0.850043,0.764555 -0.004,-0.0183 -0.0092,-0.01436 -0.0078,0.0092 0.0015,0.04315 -0.02704,0.07472 -0.695985,0.710095 -0.256384,0.242063 -0.748306,0.710378 -1.094463,1.041872 -0.346158,0.331493 -0.766492,0.73402 -0.93569,0.891897 -0.166572,0.159171 -0.386515,0.367028 -0.484123,0.459117 -0.09761,0.09209 -0.178258,0.176237 -0.174306,0.181449 0.01063,0.03134 3.013981,1.499807 3.041412,1.49048 0.01567,-0.0053 0.153633,-0.132941 0.308492,-0.281584 0.327937,-0.314391 0.923973,-0.881371 2.347702,-2.233715 0.564806,-0.536727 1.166053,-1.107659 1.332627,-1.26683 0.622055,-0.593281 2.074426,-1.970632 2.282654,-2.167961 l 0.217353,-0.20261 0.41794,-0.847253 0.416646,-0.844631 -3.289329,-1.622587 -3.289333,-1.622589 z" id="path12-2" style="display:inline;fill:&stroke_color;;stroke:none;stroke-width:0.00292485"/>
	</g>
	<g id="layer3" transform="translate(0,55)">
		<rect style="display:none;fill:&fill_color;;stroke:none;stroke-width:3.50001;stroke-linejoin:round;stroke-miterlimit:1.6;paint-order:markers fill stroke" id="rect3" width="55" height="55" x="55" y="-55"/>
	</g>
</svg>
