<?xml version="1.0"?>
<!-- Created with Inkscape (http://www.inkscape.org/) -->
<!DOCTYPE svg PUBLIC '-//W3C//DTD SVG 1.1//EN' 'http://www.w3.org/Graphics/SVG/1.1/DTD/svg11.dtd' [
<!ENTITY stroke_color "#666666">
<!ENTITY fill_color "#ffffff">
]>
<svg xmlns:inkscape="http://www.inkscape.org/namespaces/inkscape"
    xmlns:sodipodi="http://sodipodi.sourceforge.net/DTD/sodipodi-0.dtd"
    xmlns="http://www.w3.org/2000/svg" xmlns:svg="http://www.w3.org/2000/svg"
    xmlns:rdf="http://www.w3.org/1999/02/22-rdf-syntax-ns#"
    xmlns:cc="http://creativecommons.org/ns#" xmlns:dc="http://purl.org/dc/elements/1.1/" width="46"
    height="45" id="svg4502" sodipodi:version="0.32"
    inkscape:version="1.3.2 (091e20e, 2023-11-25, custom)" version="1.0" sodipodi:docname="logo.svg"
    inkscape:output_extension="org.inkscape.output.svg.inkscape" xml:space="preserve">
    <defs id="defs4504"/>
    <sodipodi:namedview id="base" pagecolor="#ffffff" bordercolor="#666666" borderopacity="1.0" gridtolerance="10000" guidetolerance="10" objecttolerance="10" inkscape:pageopacity="0.0" inkscape:pageshadow="2" inkscape:zoom="5.6568543" inkscape:cx="-52.767844" inkscape:cy="68.677746" inkscape:document-units="px" inkscape:current-layer="layer4" gridspacingx="15px" gridspacingy="15px" width="55px" height="55px" inkscape:window-width="1920" inkscape:window-height="1001" inkscape:window-x="-9" inkscape:window-y="-9" inkscape:showpageshadow="2" inkscape:pagecheckerboard="0" inkscape:deskcolor="#d1d1d1" inkscape:window-maximized="1"/>
    <metadata id="metadata4507">
        <rdf:RDF>
            <cc:Work rdf:about="">
                <dc:format>image/svg+xml</dc:format>
                <dc:type rdf:resource="http://purl.org/dc/dcmitype/StillImage"/>
            </cc:Work>
        </rdf:RDF>
    </metadata>
    <g inkscape:groupmode="layer" id="layer4" inkscape:label="icon" style="display:inline" transform="translate(-4.5,50)">
        <rect style="display:none;opacity:1;fill:&fill_color;;fill-opacity:1;stroke:none;stroke-width:3.5;stroke-linecap:butt;stroke-linejoin:round;stroke-miterlimit:1.6;stroke-dasharray:none;stroke-dashoffset:0;stroke-opacity:1;paint-order:markers fill stroke" id="rect61" width="55" height="55" x="0" y="-55" inkscape:label="rect61" inkscape:export-filename="..\Desktop\shared folder\activity-numberguessing.svg" inkscape:export-xdpi="96" inkscape:export-ydpi="96"/>
        <rect style="display:none;fill:&fill_color;;stroke-width:3.5;stroke-linejoin:round;stroke-miterlimit:1.6;paint-order:markers fill stroke" id="rect1" width="55" height="55" x="0" y="-55" inkscape:export-filename="logo-math-hurdler.svg" inkscape:export-xdpi="96" inkscape:export-ydpi="96"/>
        <rect style="display:inline;fill:&fill_color;;stroke-width:3.5;stroke-linejoin:round;stroke-miterlimit:1.6;paint-order:markers fill stroke" id="rect2" width="46" height="45" x="4.5" y="-50"/>
        <path d="m 42.44732,-33.403713 c -3.536953,2.718798 -6.501202,4.993905 -6.58931,5.05684 -0.08495,0.06295 -0.519212,0.393342 -0.959762,0.736338 -0.440544,0.342997 -1.661488,1.28388 -2.712502,2.092596 l -1.910083,1.469536 -0.0032,2.035951 v 2.039098 h 0.35558 0.35244 l 0.629351,-0.481451 c 0.346141,-0.264331 0.682848,-0.519215 0.748925,-0.569567 l 0.116433,-0.08811 v 2.813205 2.8132 l -0.302088,0.173076 c -0.355583,0.20139 -0.402784,0.267474 -0.383904,0.534947 0.01894,0.283208 0.185655,0.399637 0.352435,0.254888 0.03776,-0.03144 0.125884,-0.0944 0.201396,-0.141614 l 0.132164,-0.08495 v 0.799278 0.79613 l 0.110134,0.07553 0.110134,0.07552 v 2.93278 2.9359242 h -5.355778 -5.352634 l -0.563269,0.3650239 -0.560123,0.3650215 V -6.0772625 -5.75 h 6.661686 6.66483 l 0.365022,-0.3650262 0.365024,-0.3650227 -0.01575,-0.3178205 c -0.0094,-0.1762253 -0.02831,-0.3304087 -0.04407,-0.3398519 -0.01894,-0.012557 2.699915,-2.1177702 6.038627,-4.6792297 l 6.066945,-4.663494 h 0.588446 0.588443 l 0.443692,-0.383905 c 0.361877,-0.311525 0.440546,-0.39649 0.427958,-0.449986 -0.0094,-0.03463 -0.01894,-0.179354 -0.01894,-0.324114 v -0.258036 h -0.40902 -0.409082 v -2.910749 -2.913895 l 0.110135,-0.09441 0.110134,-0.09755 v -1.09822 -1.098214 l 0.176224,-0.09755 c 0.0944,-0.05349 0.191955,-0.129014 0.217128,-0.166774 0.141593,-0.220275 0.04719,-0.616765 -0.147894,-0.616765 -0.03463,0 -0.103856,0.02832 -0.154194,0.06607 l -0.09125,0.06295 v -3.222278 -3.22228 l 0.613584,-0.497196 0.613663,-0.500329 v -2.023363 -2.023366 H 49.250534 48.87607 Z m 4.235535,9.566144 0.110134,0.07237 v 2.932774 2.935926 h -5.384103 -5.384098 l -0.531805,0.368172 -0.534948,0.368171 0.0094,0.333554 0.0094,0.330412 h 5.277111 c 2.904456,0 5.280259,0.0064 5.280259,0.01575 0,0.0094 -0.02518,0.03144 -0.05665,0.05034 -0.03148,0.02203 -0.884239,0.673404 -1.897494,1.450655 -2.998859,2.303425 -5.283407,4.059316 -7.155724,5.4973837 -0.969204,0.7426336 -1.884911,1.4475072 -2.035954,1.5670859 -0.151044,0.1164336 -0.283208,0.2139773 -0.292651,0.2139773 -0.0094,0 -0.01575,-1.1831813 -0.01575,-2.6275409 v -2.630698 l 0.110134,-0.0944 0.110134,-0.09755 v -4.666642 -4.669787 l 1.126541,-0.859066 c 0.616764,-0.475159 2.913895,-2.234196 5.104037,-3.914567 2.190144,-1.677222 4.298475,-3.294653 4.688669,-3.593596 0.390199,-0.295795 0.849625,-0.651378 1.022699,-0.78669 l 0.314677,-0.245449 0.0094,3.990091 0.0061,3.990088 z" id="path1" style="fill:&stroke_color;;stroke:none;stroke-width:0.00314674"/>
        <path d="m 13.54947,-39.114824 c -1.316014,-0.449296 -2.621602,-0.587914 -3.83672,-0.405346 -0.233119,0.03597 -0.439557,0.07545 -0.45708,0.08799 -0.01605,0.0092 -0.1550923,0.311481 -0.3045186,0.665702 -0.2160121,0.498596 -0.2830731,0.634708 -0.3096125,0.603069 -0.023177,-0.03019 -0.02465,-0.02679 -0.00688,0.02522 0.013911,0.04228 -0.029835,0.18044 -0.1312283,0.414475 -0.1175574,0.271345 -0.1585892,0.338165 -0.1817685,0.307982 -0.025099,-0.03505 -0.026568,-0.03166 -0.013694,0.02227 0.012441,0.04567 -0.037182,0.197398 -0.1463751,0.44014 l -0.1601722,0.369707 1.7796872,0.783114 1.781142,0.779755 0.19397,-0.44772 c 0.380592,-0.878479 0.686843,-1.120444 1.155367,-0.909404 0.203508,0.08817 0.427941,0.286112 0.370511,0.325686 -0.01752,0.01255 -0.01716,0.04896 -3.32e-4,0.08445 0.01685,0.0355 0.03766,0.05257 0.04353,0.039 0.0059,-0.01357 0.0267,0.0035 0.04353,0.03901 0.02024,0.03697 0.01956,0.08502 -0.0024,0.107743 -0.02193,0.02273 -0.02444,0.03775 -0.003,0.03493 0.03595,-0.0086 0.04229,0.106945 0.01822,0.301973 -0.02192,0.143583 -0.299538,0.756486 -0.419589,0.922011 -0.252768,0.341677 -0.49391,0.442655 -0.913015,0.377907 -0.168796,-0.02882 -0.412102,-0.118109 -1.029412,-0.385553 l -0.807252,-0.349733 -0.296832,0.685146 c -0.164581,0.379883 -0.397224,0.90753 -0.521549,1.175944 l -0.219885,0.48886 0.732191,0.309123 c 0.996753,0.423741 1.266845,0.609278 1.422667,0.974888 0.05959,0.1507 0.06548,0.25799 0.0062,0.171846 -0.01787,-0.02385 -0.02273,-0.02193 -0.02091,0.01108 0.0047,0.02623 0.02408,0.04669 0.04206,0.0424 0.06411,-0.0085 0.02389,0.344708 -0.04982,0.449744 -0.05517,0.08084 -0.05764,0.09588 -0.0095,0.0684 0.101181,-0.05688 -0.367586,0.904256 -0.529467,1.091943 -0.165273,0.186218 -0.437617,0.32202 -0.627327,0.304285 -0.201356,-0.01875 -0.542802,-0.206962 -0.619463,-0.336861 -0.08627,-0.154203 -0.108114,-0.401343 -0.05386,-0.619546 0.02758,-0.100847 0.05515,-0.201698 0.05911,-0.220126 0.0054,-0.02183 0.118092,-0.291256 0.249923,-0.604758 l 0.241995,-0.567909 -1.7734786,-0.76025 -1.7768698,-0.761719 -0.1893425,0.38124 c -0.1027495,0.209276 -0.1805258,0.36089 -0.1721609,0.332285 0.00835,-0.02861 -7.991e-4,-0.04466 -0.015379,-0.0389 -0.01944,0.0077 -0.024445,0.03775 -0.014356,0.07033 0.024882,0.09135 -0.5790699,1.485384 -0.620116,1.431345 -0.025099,-0.03505 -0.031432,-0.02972 -0.010287,0.02374 0.013911,0.04228 -0.029835,0.180439 -0.1312286,0.414475 -0.1175574,0.271345 -0.1585892,0.338166 -0.1817683,0.30798 -0.025099,-0.03505 -0.026119,-0.0234 -0.011756,0.02714 0.010972,0.04906 -0.00926,0.132954 -0.060581,0.223517 -0.04355,0.08184 -0.068063,0.147764 -0.056374,0.1488 0.045107,0.0074 0.1377151,0.156346 0.1075303,0.179525 -0.017518,0.01255 -0.017632,0.0407 -0.00316,0.06309 0.02126,0.02532 0.026119,0.0234 0.022839,-0.0062 -0.010858,-0.07722 0.00848,-0.05676 0.2112074,0.228471 0.1057199,0.146513 0.3168164,0.403135 0.4734134,0.57169 0.1565962,0.168555 0.2826666,0.323884 0.2787111,0.342313 9.365e-4,0.01651 0.018317,0.03211 0.041139,0.02591 0.021362,-0.0029 0.1472057,0.08795 0.2826576,0.203026 0.6099823,0.526118 1.4109123,1.002023 2.4235949,1.444786 0.788816,0.345793 1.3453,0.530472 1.883685,0.626751 0.889541,0.159792 1.494956,0.119949 2.134723,-0.138662 0.610599,-0.247077 1.012828,-0.580399 1.474501,-1.218301 0.224503,-0.313638 0.676769,-1.273862 0.796353,-1.689352 0.305169,-1.076323 0.07513,-2.070298 -0.629939,-2.730267 -0.08898,-0.08286 -0.09136,-0.09597 -0.02488,-0.09135 0.373653,0.02088 0.723333,-0.03307 1.062153,-0.164241 0.633889,-0.245044 1.024242,-0.643938 1.414224,-1.441809 0.944435,-1.947474 0.419839,-3.57262 -1.549817,-4.800599 -0.416407,-0.256945 -1.330616,-0.685245 -1.853629,-0.863497 z m -0.202125,3.135188 c -0.0073,0.01695 -0.02151,0.03096 -0.02826,0.02804 -0.01018,-0.0044 -0.01979,-0.02872 -0.02261,-0.05008 -0.0014,-0.02476 0.01129,-0.0354 0.02826,-0.02804 0.02035,0.0088 0.03143,0.02972 0.02261,0.05008 z" id="path2-6" style="display:inline;fill:&stroke_color;;stroke:none;stroke-width:0.00369645"/>
        <path d="m 10.848906,-47.942957 -0.154157,0.677113 0.06543,0.06808 c 0.06034,0.05998 0.08779,0.142542 0.03255,0.09066 -0.01559,-0.01278 -0.02047,-0.01164 -0.01199,0.0019 0.0085,0.0135 0.02627,0.02679 0.03946,0.02979 0.01539,0.0035 0.02018,0.02309 0.01517,0.04508 -0.0067,0.01928 -0.0031,0.03398 0.0072,0.02938 0.02768,-0.0099 0.02684,0.105542 0.0022,0.132317 -0.0145,0.01288 -0.0084,0.01658 0.01168,0.0096 0.02279,-0.0087 0.02587,0.0082 0.0036,0.06556 -0.01443,0.04296 -0.01652,0.07254 -0.0067,0.07016 0.0125,-0.0041 -0.188624,0.909753 -0.444386,2.033146 -0.484495,2.128069 -0.491704,2.149552 -0.624574,2.306603 -0.02829,0.03287 -0.09087,0.07412 -0.139647,0.09539 l -0.09116,0.03474 -0.15616,0.685907 -0.15666,0.688105 1.481734,0.337346 1.481734,0.337345 0.02151,-0.04367 c 0.01264,-0.02487 0.08977,-0.333354 0.169853,-0.685101 l 0.147891,-0.639229 -0.07612,-0.08208 c -0.04815,-0.05258 -0.0852,-0.123453 -0.09876,-0.195912 l -0.02484,-0.114337 0.680572,-3.019939 0.682315,-3.017231 -1.352065,-0.307824 -1.352028,-0.307815 z" id="path3-5-6" style="display:inline;fill:&stroke_color;;stroke:none;stroke-width:0.00225468"/>
        <path d="m 22.149828,-47.144571 -2.303334,1.464386 -0.0636,2.697975 c -0.03934,1.480678 -0.09658,3.630633 -0.129988,4.775989 l -0.06034,2.079381 0.918112,1.446191 c 0.502798,0.796512 0.95319,1.501761 0.992946,1.564741 l 0.08089,0.119907 2.630339,-1.660402 2.630341,-1.660403 0.0608,0.09632 c 0.03274,0.05186 0.03897,0.09456 0.01713,0.0928 -0.02554,5.84e-4 -0.0072,0.04601 0.03897,0.09456 0.04486,0.05458 0.08905,0.182112 0.09838,0.295382 0.01419,0.162013 -0.01234,0.251295 -0.146521,0.46552 l -0.168309,0.266854 0.72539,1.132647 0.72539,1.132646 2.457212,-1.540709 c 1.354565,-0.849866 2.487213,-1.575256 2.520961,-1.612075 0.0624,-0.0653 0.04369,-0.09493 -0.660226,-1.210049 l -0.722626,-1.144753 -0.125751,0.02239 c -0.270024,0.05648 -0.551121,-0.07694 -0.796696,-0.367483 l -0.145203,-0.172568 0.429746,-0.271277 0.42604,-0.268939 -0.05437,-0.110745 c -0.02764,-0.06027 -0.396777,-0.66138 -0.820063,-1.331932 l -0.775457,-1.220204 -0.440464,0.262505 -0.440465,0.262504 -2.266099,-3.589858 c -1.246472,-1.974608 -2.279549,-3.586549 -2.29905,-3.584601 -0.02323,0.0043 -1.071652,0.666074 -2.333964,1.473315 z m 2.075145,6.471841 1.028982,1.630069 -1.085478,0.685209 -1.081775,0.68287 -3.5e-4,-0.181111 c 0.0084,-1.020786 0.07863,-4.422353 0.09111,-4.435412 0.01111,-0.007 0.48157,0.721836 1.047509,1.618375 z" id="path5-2" style="display:inline;fill:&stroke_color;;stroke:none;stroke-width:0.00438108"/>
        <path d="m 11.207956,-21.832775 c -2.1735384,1.389659 -2.5062426,2.799688 -1.194348,5.069769 0.439621,0.762986 0.821526,1.263018 1.246269,1.627098 0.184491,0.157409 0.208713,0.185882 0.141346,0.184273 -0.02754,-3.25e-4 -0.02888,0.0041 -0.0037,0.02079 0.0219,0.01089 0.04911,0.0039 0.06207,-0.01439 0.0156,-0.02719 0.0252,-0.01731 0.03153,0.0208 0.003,0.0323 0.01591,0.04799 0.02292,0.03293 0.02422,-0.03934 0.235939,0.111031 0.233611,0.161252 -0.002,0.02367 0.0073,0.02627 0.01859,0.0051 0.0229,-0.03487 0.258843,0.07616 0.296999,0.142386 0.01162,0.02016 0.03019,0.02527 0.03717,0.01022 0.01991,-0.03327 0.255523,0.07041 0.265142,0.11423 0.0053,0.01601 0.01464,0.01854 0.02456,0.0019 0.02423,-0.03934 0.224335,0.02306 0.215701,0.06912 -0.0083,0.01951 0.0023,0.01764 0.01662,-0.0051 0.03287,-0.0515 0.15133,-0.03581 0.149337,0.02177 9.87e-4,0.02207 0.0086,0.02177 0.01992,6.45e-4 0.02853,-0.04542 0.390273,-0.02811 0.378651,0.01956 -0.0037,0.02079 0.0023,0.01764 0.01531,-5.7e-4 0.01428,-0.02272 0.114173,-0.04604 0.222354,-0.055 0.490497,-0.04409 0.986987,-0.227005 1.641466,-0.603756 0.557568,-0.321104 0.861586,-0.566737 1.132095,-0.911229 0.07236,-0.09147 0.139074,-0.1724 0.148035,-0.177198 0.006,-0.0032 0.168622,0.278925 0.356969,0.626403 0.363634,0.671808 0.450885,0.911414 0.399089,1.119976 -0.05047,0.204083 -0.242972,0.37872 -0.516104,0.460898 -0.350125,0.104566 -0.604316,-0.03814 -0.933793,-0.528565 l -0.162252,-0.240894 -1.502455,0.804351 -1.505426,0.805941 0.05006,0.09375 c 0.02986,0.05183 0.137988,0.246349 0.242501,0.427738 0.122762,0.213061 0.180815,0.347744 0.166556,0.370447 -0.01394,0.03007 -0.0106,0.03583 0.01328,0.02304 0.02688,-0.01439 0.12376,0.133412 0.346059,0.519223 0.175552,0.297818 0.344764,0.591495 0.381261,0.654837 0.06606,0.107787 0.08329,0.117409 0.265474,0.12159 0.110174,0.0013 0.195133,0.01986 0.194466,0.03905 9.88e-4,0.02207 0.0086,0.02178 0.01993,6.44e-4 0.01428,-0.02272 0.148018,-0.04157 0.30399,-0.04219 0.154315,-0.0036 0.358744,-0.015 0.452995,-0.02778 0.09724,-0.01438 0.170908,-0.0087 0.168914,0.01505 -6.74e-4,0.01919 0.0055,0.02338 0.01859,0.0051 0.0099,-0.01664 0.232314,-0.07163 0.493161,-0.120861 0.421806,-0.07513 0.571481,-0.113813 0.934554,-0.236608 0.05576,-0.01854 0.12379,-0.03613 0.151003,-0.04317 0.360411,-0.07994 1.781865,-0.780639 2.328155,-1.14845 1.481225,-1.003955 1.943649,-2.114233 1.490512,-3.585772 -0.209982,-0.690023 -0.291932,-0.845819 -1.663549,-3.219552 -1.2243,-2.124841 -1.300317,-2.249906 -1.585302,-2.60216 -1.132796,-1.416597 -2.276024,-1.704951 -4.057875,-1.026037 -0.464629,0.177164 -1.532298,0.718607 -1.972381,0.999421 z m 2.356011,1.647062 c 0.09458,-0.0054 0.15033,0.0099 0.153319,0.04225 0.0043,0.02784 0.0282,0.04894 0.05276,0.05087 0.02755,3.2e-4 0.02888,-0.0041 0.0053,-0.01792 -0.02357,-0.01376 -0.03485,-0.02655 -0.02595,-0.03132 0.03286,-0.01759 0.213372,0.119344 0.221661,0.167649 0.0043,0.02784 0.01385,0.03778 0.02389,0.02111 0.03552,-0.06045 0.23028,0.223311 0.62511,0.908558 0.32379,0.568819 0.402786,0.726194 0.438936,0.883905 0.07827,0.34613 -0.02032,0.56844 -0.324984,0.731547 -0.203114,0.108743 -0.324573,0.128564 -0.518047,0.07767 -0.247561,-0.06336 -0.362036,-0.194214 -0.793366,-0.908895 -0.555086,-0.915907 -0.67751,-1.257236 -0.540409,-1.541605 0.09494,-0.201517 0.402263,-0.373582 0.68169,-0.383792 z" id="path11-0" style="display:inline;fill:&stroke_color;;stroke:none;stroke-width:0.00335452"/>
        <path d="m 40.236166,-48.489243 c -0.06093,0.110182 -1.705517,3.444109 -1.771379,3.597516 -0.01939,0.04587 0.05278,0.08474 1.159714,0.630781 l 1.180383,0.582269 0.244552,-0.495761 c 0.547334,-1.109561 0.750735,-1.230996 1.458965,-0.881634 l 0.220338,0.10869 -0.231658,0.218384 c -0.128837,0.122344 -0.460692,0.438062 -0.739177,0.705095 -0.278486,0.267034 -0.603835,0.57618 -0.720958,0.687994 -0.11712,0.111816 -0.239457,0.227582 -0.268064,0.259131 -0.270581,0.277455 -0.839444,0.78935 -0.850043,0.764555 -0.004,-0.0183 -0.0092,-0.01436 -0.0078,0.0092 0.0015,0.04315 -0.02704,0.07472 -0.695985,0.710095 -0.256384,0.242063 -0.748306,0.710378 -1.094463,1.041872 -0.346158,0.331493 -0.766492,0.73402 -0.93569,0.891897 -0.166572,0.159171 -0.386515,0.367028 -0.484123,0.459117 -0.09761,0.09209 -0.178258,0.176237 -0.174306,0.181449 0.01063,0.03134 3.013981,1.499807 3.041412,1.49048 0.01567,-0.0053 0.153633,-0.132941 0.308492,-0.281584 0.327937,-0.314391 0.923973,-0.881371 2.347702,-2.233715 0.564806,-0.536727 1.166053,-1.107659 1.332627,-1.26683 0.622055,-0.593281 2.074426,-1.970632 2.282654,-2.167961 l 0.217353,-0.20261 0.41794,-0.847253 0.416646,-0.844631 -3.289329,-1.622587 -3.289333,-1.622589 z" id="path12-2" style="display:inline;fill:&stroke_color;;stroke:none;stroke-width:0.00292485"/>
    </g>
</svg>
